<svg xmlns="http://www.w3.org/2000/svg" version="1.1" xmlns:xlink="http://www.w3.org/1999/xlink" xmlns:svgjs="http://svgjs.dev/svgjs" width="1440" height="560" preserveAspectRatio="none" viewBox="0 0 1440 560">
    <g mask="url(&quot;#SvgjsMask1036&quot;)" fill="none">
        <rect width="1440" height="560" x="0" y="0" fill="rgba(238, 245, 255, 1)"></rect>
        <!-- <circle r="6.24" cx="1033.1200000000001" cy="264.62" filter="url(#SvgjsFilter1037)" fill="rgba(51, 121, 194, 0.58)"></circle> -->
        <!-- <circle r="7.07" cx="880.1700000000001" cy="141.79" filter="url(#SvgjsFilter1037)" fill="rgba(51, 121, 194, 0.58)"></circle> -->
        <circle r="8.17" cx="110.94" cy="409.96000000000004" filter="url(#SvgjsFilter1037)" fill="rgba(51, 121, 194, 0.58)"></circle>
        <circle r="6.755" cx="832.155" cy="69.175" filter="url(#SvgjsFilter1037)" fill="rgba(51, 121, 194, 0.58)"></circle>
        <circle r="5.125" cx="950.365" cy="510.985" filter="url(#SvgjsFilter1037)" fill="rgba(51, 121, 194, 0.58)"></circle>
        <circle r="6.91" cx="434.08000000000004" cy="28.01" filter="url(#SvgjsFilter1037)" fill="rgba(51, 121, 194, 0.58)"></circle>
        <circle r="7.98" cx="1163.02" cy="25" filter="url(#SvgjsFilter1037)" fill="rgba(51, 121, 194, 0.58)"></circle>
        <circle r="7.76" cx="121.01" cy="21.53" filter="url(#SvgjsFilter1037)" fill="rgba(51, 121, 194, 0.58)"></circle>
        <!-- <circle r="7.415" cx="868.4649999999999" cy="323.365" filter="url(#SvgjsFilter1037)" fill="rgba(51, 121, 194, 0.58)"></circle> -->
        <circle r="7.1" cx="860.2" cy="488.71000000000004" filter="url(#SvgjsFilter1037)" fill="rgba(51, 121, 194, 0.58)"></circle>
        <circle r="6.955" cx="468.79499999999996" cy="153.095" filter="url(#SvgjsFilter1037)" fill="rgba(51, 121, 194, 0.58)"></circle>
        <!-- <circle r="8.6" cx="1033.4699999999998" cy="333.98" filter="url(#SvgjsFilter1037)" fill="rgba(51, 121, 194, 0.58)"></circle> -->
        <!-- <circle r="6.765" cx="870.395" cy="351.365" filter="url(#SvgjsFilter1037)" fill="rgba(51, 121, 194, 0.58)"></circle> -->
        <circle r="4.955" cx="172.00500000000002" cy="296.965" filter="url(#SvgjsFilter1037)" fill="rgba(51, 121, 194, 0.58)"></circle>
        <circle r="5.595" cx="344.63500000000005" cy="239.98499999999999" filter="url(#SvgjsFilter1037)" fill="rgba(51, 121, 194, 0.58)"></circle>
        <circle r="6.3" cx="1257.6299999999999" cy="524.26" filter="url(#SvgjsFilter1037)" fill="rgba(51, 121, 194, 0.58)"></circle>
        <circle r="6.55" cx="1350.96" cy="123.03999999999999" filter="url(#SvgjsFilter1037)" fill="rgba(51, 121, 194, 0.58)"></circle>
        <circle r="6.295" cx="763.0749999999999" cy="509.755" filter="url(#SvgjsFilter1037)" fill="rgba(51, 121, 194, 0.58)"></circle>
        <circle r="6.565" cx="855.1550000000001" cy="503.755" filter="url(#SvgjsFilter1037)" fill="rgba(51, 121, 194, 0.58)"></circle>
        <circle r="9.22" cx="39.38" cy="233.07" filter="url(#SvgjsFilter1037)" fill="rgba(51, 121, 194, 0.58)"></circle>
        <!-- <path d="M995.9 451.3L1002.5 432.3 1011.7 442.2C1012.5 443.3 1014.5 443.6 1016.3 442.6 1017.3 441 1017.5 439 1016.7 437.9L1004.8 424.6 1011.1 407 1034.9 434.2C1036.5 435.9 1038.5 436.1 1039.5 434.6 1041.3 433.6 1041.5 431.6 1039.9 430L1013.6 400 1018.8 383.9 1057.1 376.2 1067.1 387.2 1053 427.3C1053.2 427.9 1053.3 428.5 1053.4 429.2 1053.5 429.8 1054.4 430.9 1055.2 431.4 1057.3 432.3 1059.1 431.3 1059.3 429.3L1072.2 392.7 1084.1 406.6 1078.1 425.5C1077.5 425.6 1077.6 426.2 1077.8 426.9 1078 428.1 1078.9 429.2 1080.3 429.6 1081.7 430 1083.4 429 1084.4 427.5L1089.2 412.2 1104.4 429.3C1105.3 430.4 1107.3 430.7 1109 429.7 1110 428.2 1110.3 426.2 1109.4 425L1095.1 409 1108.2 406.3C1110.1 406 1111 403.8 1110.7 402.6 1110.3 400.7 1108.7 399.1 1106.8 399.4L1089.9 402.9 1077.9 389 1113.1 381.9C1114.9 381.5 1116 380 1115.6 378.1 1115.2 376.2 1113.7 375.2 1111.8 375.6L1072.9 383.4 1062.1 371.9 1074.8 334.7 1089.2 331.8 1116.3 362.3C1117.3 364 1119.9 364.1 1120.9 362.6 1122.7 361.6 1122.3 359.7 1121.3 358L1096.8 330.3 1115 326.6 1126.9 340.5C1127.8 341.7 1130.4 341.8 1131.6 340.9S1132.8 337.4 1131.8 335.6L1122.5 325.1 1144.4 320.7C1146.3 320.3 1147.2 318.1 1146.8 316.3 1146.6 315 1144.9 313.4 1143 313.8L1121.1 318.2 1125.5 304.3C1125.8 302.9 1125.4 301 1123.3 300.1 1121.9 299.7 1119.5 300.9 1119.2 302.3L1113.6 319.7 1095.4 323.4 1107.2 288.4C1107.5 286.3 1107.1 284.5 1105 283.6 1103.6 283.2 1101.2 284.4 1100.8 285.7L1087.8 324.9 1073.4 327.8 1047.2 298.5 1052.7 283.7 1091.6 275.8C1093.5 275.5 1094.5 273.9 1094.1 272.1 1093.8 270.2 1092.1 268.6 1090.2 268.9L1055.1 276 1060.7 258.6 1077.7 255.2C1079.5 254.8 1080.5 253.3 1080.2 251.4 1079.8 249.5 1078.3 248.5 1076.4 248.9L1063.2 251.5 1070.2 231.2C1070.6 229.8 1069.4 227.4 1068.1 227.1 1066.1 226.8 1064.2 227.2 1063.9 229.2L1056.4 250.3 1046.2 238.7C1044.7 237.7 1042.7 237.4 1041.6 238.3 1040.5 239.2 1040.1 240.6 1040.4 241.8 1040.4 241.8 1040.5 242.4 1041.2 242.9L1054.1 258 1048.5 275.4 1022.4 246.7C1021.4 245 1019.4 244.7 1017.8 246.4 1017.3 247.1 1016.8 247.9 1017 249.1 1017.1 249.8 1017.3 250.4 1017.4 251L1046 282.5 1041 296.5 1002.7 304.3 991.6 291.5 1004.2 253.7C1005.1 251.5 1004.1 249.8 1002.1 249.5 1000.6 248.5 998.8 249.5 997.9 251.7L986.6 286 974 272.2 979.8 255.4C980.1 254 979.1 252.2 977.6 251.2 975.6 251 973.7 251.4 973.5 253.4L968.9 266.1 955.4 251.1C954.4 249.4 952.5 249.8 950.8 250.8 950.3 251.5 949.9 252.9 950.1 254.2 950.1 254.2 950.3 254.8 950.4 255.4L964.7 271.5 949 274.6C947.8 274.9 946.2 276.5 946.5 278.4 946.9 280.3 949.1 281.2 950.3 280.9L969.8 277 982.3 290.8 944.1 298.5C942.2 298.9 941.3 301 941.7 302.9S943.6 305.8 945.5 305.4L987.5 296.9 997.7 308.5 985 345.7 968.7 349 941.5 317.9C940 316.9 938 316.7 936.2 317.7 935.7 318.5 935.3 319.8 935.6 321.1 935.7 321.7 935.8 322.4 936.6 322.9L961.1 350.5 942.9 354.2 930.4 340.4C929.5 339.3 927.5 339.1 925.7 340.1 924.7 341.6 924.5 343.6 925.3 344.7L935.4 355.7 915.3 359.8C914.1 360.1 912.6 362.3 912.8 363.6 913.2 365.5 915.5 367 916.7 366.7L936.8 362.6 931.7 376.1C931.8 376.7 931.9 377.3 932.1 378 932.3 379.2 933.2 380.3 934 380.8 936 381.1 937.7 380.1 938.7 378.6L944.3 361.1 962.5 357.4 950.7 392.5C949.8 394.6 950.8 396.4 952.2 396.7 954.3 397.6 956.1 396.6 957.1 395.1L970.1 355.9 986.4 352.6 1012.5 381.9 1007.7 396.6 965.6 405.1C963.8 405.5 962.8 407 963.1 408.9 963.5 410.8 965 411.8 966.9 411.4L1005.2 403.7 998.9 421.3 979.5 425.2C978.2 425.4 976.7 427.7 977.1 429.6 977.5 431.5 979.6 432.3 980.9 432.1L996.6 428.9 989.6 449.3C989.7 449.9 989.7 449.9 989.8 450.5 990.1 451.8 991 452.9 991.7 453.4 993.7 453.6 995.5 452.6 995.9 451.3ZM993.9 351.1L991.2 347.7 992.5 344.2 1002.7 314.1 1004 310.5 1007.7 309.8 1038.5 303.6 1042.2 302.8 1044.8 305.6 1065.9 329.4 1068.4 332.1 1067.3 336.3 1056.9 365.8 1055.8 369.9 1052 370.7 1021.3 376.9 1017.5 377.7 1014.9 374.3 993.9 351.1Z" fill="rgba(51, 121, 194, 0.58)"></path> -->
        <path d="M1276.2 519.2L1238.3 531 1228.5 526.2 1227.4 501.7 1236.7 495.5 1275.6 504.3C1276 504.3 1276 504.3 1276.5 504.3 1277.5 504.2 1278.4 503.7 1278.8 502.3 1278.8 500.8 1278.2 499.9 1276.8 499.5L1242.8 491.9 1257.3 482.6 1272.3 485.7C1272.3 485.7 1272.8 485.7 1272.8 485.7 1273.8 485.7 1274.7 485.1 1275.1 483.7 1275.5 482.7 1274.5 481.3 1273.1 480.9L1263.3 478.5 1274.1 471.7C1275 471.2 1275.4 469.7 1274.9 468.3S1272.4 467 1271 467.5L1260.7 474.2 1262.7 464.5C1263.1 463.1 1262.1 461.7 1260.6 461.3 1259.7 461.3 1258.3 461.9 1257.8 463.3L1254.7 478.4 1239.7 487.7 1247.3 453.7C1247.7 452.3 1246.7 450.9 1245.7 450.4 1244.3 450.5 1242.9 451 1242.4 452.5L1234.1 491.3 1224.3 497.5 1203.2 486.5 1202.6 475 1229.2 445.4C1230.1 444.4 1230 443 1229 442.1S1226.6 441.2 1225.6 442.2L1202.3 468.3 1201.5 450.5 1211.6 439.5C1212.5 438.5 1212.4 437 1211.4 435.7S1209 434.8 1208.1 435.8L1201.2 443.8 1200.6 430.9C1200.6 429.4 1199.1 428.5 1197.6 428.6 1196.2 428.7 1195.3 429.7 1195.3 431.1L1195.9 444 1188.4 437.2C1187.4 435.8 1186 435.9 1185.1 437.3 1184.1 438.3 1184.2 439.8 1185.2 440.7L1196.2 450.8 1197.1 468.5 1171.5 444.7C1170.5 443.8 1168.5 443.9 1167.6 444.9S1166.8 447.3 1167.8 448.2L1197.4 475.2 1197.9 486.7 1177.3 499.7 1167.5 494.4 1155.7 456.5C1155.1 455 1153.7 454.6 1152.2 454.7 1150.8 455.2 1150.4 456.7 1150.5 458.1L1161.1 491.3 1145.8 483.3 1141.3 468.6C1140.8 467.2 1139.3 466.8 1137.9 466.9 1136.9 467.4 1136 468.9 1136.6 470.3L1139.4 479.8 1128.1 474C1127.1 473.6 1125.7 474.2 1124.8 475.2 1124.4 476.6 1124.9 478 1125.9 478.5L1137.2 484.2 1127.3 487.5C1126.3 488.1 1125.5 489.5 1126 490.5 1126 491.9 1127 492.4 1128.5 492.3 1128.5 492.3 1128.9 492.3 1128.9 492.3L1143.6 487.8 1158.9 495.7 1125.7 506.3C1124.3 506.9 1123.4 507.9 1124 509.3 1124.5 510.7 1125.5 511.2 1126.4 511.1 1126.9 511.1 1126.9 511.1 1126.9 511.1L1165.3 498.8 1175.1 504.1 1176.2 528.6 1166.9 534.3 1127.6 526C1126.6 525.5 1125.2 526.6 1124.8 527.5 1124.4 529 1125.4 530.4 1126.9 530.8L1160.8 538.4 1146.4 547.7 1131.3 544.5C1129.9 544.1 1128.4 544.7 1128.5 546.1 1128.1 547.6 1129.1 549 1130.1 549.4L1140.3 551.3 1129.5 558.1C1128.6 559.1 1128.2 560.5 1128.8 561.9 1129.3 562.4 1130.2 562.8 1131.2 562.8 1131.7 562.8 1131.7 562.8 1132.1 562.3L1142.9 555.5 1140.9 565.7C1140.5 567.2 1141.5 568.1 1142.5 568.5 1143 568.5 1143 568.5 1143.5 568.5 1144.4 568.4 1145.4 567.9 1145.8 566.9L1149 551.9 1163.4 542.6 1155.8 576.6C1155.9 578 1156.5 579.4 1157.9 579.4 1158.4 579.8 1158.4 579.8 1158.9 579.8 1159.8 579.8 1160.8 578.7 1161.2 577.8L1169.5 538.5 1178.8 532.8 1200.5 543.8 1201 554.8 1174 584.4C1173.1 585.4 1173.2 587.3 1174.2 588.2S1177.1 589.1 1178 588.1L1201.3 562 1202.1 579.3 1192.1 590.8C1191.1 591.8 1191.2 593.2 1192.2 594.1 1193.2 595 1194.6 595 1195.6 594L1202.4 586.5 1203 599.4C1203.1 600.4 1204.1 601.8 1205.5 601.7 1207 601.6 1208.3 600.1 1208.3 599.2L1207.7 586.2 1215.2 593.1C1215.7 593.5 1216.2 594 1216.7 594 1217.7 593.9 1218.1 593.4 1218.6 592.9 1219.5 591.9 1219.4 590.5 1218.4 589.6L1207.4 579 1206.6 561.8 1232.2 585.6C1232.7 586 1233.2 586 1234.1 586 1234.6 586 1235.1 585.9 1235.5 585.4 1236.5 584.4 1236.4 582.5 1235.4 581.6L1206.3 554.6 1205.8 543.5 1225.8 530.6 1236.1 535.4 1248 573.8C1248.5 574.7 1249.5 575.7 1250.5 575.6 1250.9 575.6 1250.9 575.6 1250.9 575.1 1252.4 575.1 1253.3 573.6 1252.7 572.2L1242.1 539 1257.8 546.9 1262.3 561.6C1262.8 562.6 1263.8 563 1264.8 563 1264.8 563 1265.3 562.9 1265.3 562.9 1266.7 562.9 1267.6 561.4 1267 560L1263.7 550 1275 555.8C1275.5 556.2 1276 556.2 1276.5 556.2 1277.4 556.1 1278.4 555.6 1278.4 555.1 1279.3 553.6 1278.7 552.2 1277.7 551.3L1266.4 545.6 1275.9 542.8C1277.3 542.2 1278.2 540.7 1277.6 539.3 1277.1 538.4 1275.6 537.5 1274.7 538L1260 542.5 1244.7 534.6 1277.9 523.9C1279.3 523.4 1279.7 521.9 1279.7 520.5 1279.1 519.5 1277.7 518.6 1276.2 519.2ZM1222.3 504.8L1223.1 523.5 1223.2 526.4 1220.9 528 1205.5 537.8 1202.7 539.4 1200.2 538 1184 529.6 1181.5 528.3 1181.4 525.4 1180.5 506.7 1180.4 503.9 1182.7 502.3 1198.1 492.5 1200.5 490.9 1203.4 492.2 1219.7 500.6 1222.1 502 1222.3 504.8Z" fill="rgba(51, 121, 194, 0.58)"></path>
        <path d="M253 537.8L238.5 524.6 249.6 520.6C250.8 520.3 251.7 518.7 251.5 517 250.6 515.6 249.1 514.8 247.8 515.6L233.7 520.2 222 510.4 251.4 500.9C252.7 500.1 253.6 498.5 253.2 497.3 252.5 495.4 250.9 494.6 249.6 495.4L217.2 505.9 199.8 490.4 226.1 484.9 204 469.5 226.1 462.1 251.9 484.5C251.7 485 252.3 485.1 252.8 485.2 253.9 485.5 255.2 485.1 255.9 484.1 256.7 483.2 256.5 481.4 255.6 480.1L232.3 459.9 246.9 455.4 258.1 465.2C258.5 465.8 259.1 465.9 259.6 466 260.2 466.2 261.4 465.8 262.2 464.8 262.9 463.9 262.7 462.1 261.7 461.3L253.1 453.3 271.6 446.8C273.3 446.5 273.7 444.9 273.5 443.1 273.1 441.9 271.6 441 269.7 441.8L251.4 447.8 253.7 436.3C254 434.6 252.6 433.2 251.5 432.9 249.9 432.6 248.6 433.5 248.2 435.1L245.2 449.9 230.6 454.4 236.6 424.8C237 423.1 236.1 421.8 234.4 421.5 233.3 421.2 231.5 422 231.1 423.6L224.4 456.6 202.3 464 210.3 438.8 186.3 449.9 191 426.9 222.9 416.2C224.8 415.5 225.1 413.8 224.8 412.6 224.5 411.4 223 410.5 221.2 410.7L192.3 420.8 195.3 406 209.5 400.9C211.2 400.7 212.1 399.2 211.4 397.3 211 396.1 209.5 395.2 207.6 396L196.6 399.4 200.6 380.2C200.9 378.6 200 377.3 198.4 376.9S195.4 377.5 195.1 379.1L191.2 398.3 182.4 390.8C181 389.4 179.2 389.6 178.5 390.6 177 392 177.2 393.8 178.8 394.6L189.8 404.9 186.8 419.7 164.1 399.1C162.6 398.2 160.8 398.4 160.1 399.4 158.6 400.8 158.9 402.6 160.4 403.5L185.6 425.8 180.8 448.8 163.1 429.2 160.6 455.5 143.2 440 149.9 407C150.3 405.4 148.9 404 147.8 403.7 146.1 403.4 144.8 404.3 144.5 405.9L138.3 436.1 126.7 425.7 129.7 410.9C130 409.3 129.2 407.9 127.5 407.6 126.4 407.4 124.6 408.1 124.2 409.8L121.9 421.3 107.3 408.6C105.9 407.2 104.1 407.4 103.3 408.9 102.5 409.9 102.1 411.6 103.7 412.4L118.1 425.7 107 429.7C105.8 430 104.9 431.6 105.2 432.8 105.6 434 106.5 434.8 107.1 434.9 107.6 435 108.2 435.1 108.9 434.7L122.9 430.1 134.6 439.9 105.3 449.4C104 450.2 103.1 451.8 103.4 453 103.7 454.2 104.7 455 105.8 455.2 106.4 455.3 106.4 455.3 107 454.9L139.5 444.3 156.9 459.9 130.6 465.4 152.6 480.7 130.5 488.2 104.8 465.8C103.8 465.1 102.1 464.7 100.7 466.1 99.9 467.1 100.1 468.9 101 470.2L124.3 490.4 109.7 494.8 98.5 485.1C97.7 483.8 95.9 484 94.5 485.4 93.7 486.4 93.9 488.2 94.8 489.5L103.5 497 85.1 503.5C83.3 503.7 83 505.4 83.2 507.1 83.6 507.8 84.6 508.6 85.2 508.7 85.7 508.8 86.3 508.9 86.9 508.5L105.3 502.5 102.9 514C102.6 515.7 104 517.1 105.1 517.3L105.1 517.3C106.8 517.7 108.1 516.8 108.4 515.2L111.4 500.3 126.1 495.9 120 525.5C119.7 527.2 120.5 528.5 122.2 528.8S125.2 528.3 125.5 526.7L132.2 493.7 154.3 486.2 146.3 511.5 170.3 500.4 165.6 523.4 133.7 534C131.8 534.8 131.5 536.5 131.8 537.7 132.1 538.9 133.7 539.8 135.4 539.5L164.2 530 161.3 544.3 147.1 549.4C145.4 549.6 144.5 551.1 145.3 553 145.6 554.2 147.1 555.1 148.9 554.9L160 550.8 156.1 570.1C155.7 571.7 156.6 573 158.2 573.4S161.2 572.8 161.6 571.2L165.5 552 174.2 559.5C174.7 560.1 175.2 560.2 175.8 560.4 176.9 560.6 177.5 560.1 178.2 559.7 179.6 558.3 179.4 556.5 177.9 555.6L166.8 545.4 169.8 530.6 192.5 551.2C193 551.3 193.6 551.4 194.1 551.5 195.2 551.8 195.9 551.3 196.6 550.9 198 549.5 197.8 547.7 196.2 546.8L171.1 524.5 175.8 501.5 193.5 521.1 196 494.8 213.4 510.3 206.7 543.2C206.4 544.9 207.8 546.3 208.9 546.5 210.5 546.9 211.8 546 212.2 544.4L218.2 514.7 229.9 524.6 226.9 539.4C226.6 541 227.5 542.3 229.1 542.7S232.1 542.1 232.4 540.5L234.8 529 249.3 541.7C249.8 542.3 250.3 542.4 250.8 542.6 251.4 542.7 252.6 542.3 253.4 541.4 254.2 540.4 254.5 538.7 253 537.8ZM189.3 508.2L174.8 492.2 155.3 501.3 161.8 480.3 144.3 468.2 165.3 463.3 167.4 442 181.8 458.1 201.4 449 194.9 469.4 212.3 482.1 191.4 486.4 189.3 508.2Z" fill="rgba(51, 121, 194, 0.58)"></path>
        <path d="M545.2 59.4L531.6 82.3 508.6 87.9 515.2 65.2 538.5 52.5C538.5 52.5 538.7 52.3 538.7 52.3 539.2 51.9 539.2 51 539 50.3 538.6 49.4 537.4 49.1 536.7 49.8L516.4 60.9 519.5 49.9 528.5 44.9C528.5 44.9 528.7 44.6 528.7 44.6 529.2 44.2 529.2 43.3 529 42.6 528.5 41.7 527.4 41.4 526.7 42.1L520.5 45.4 523 37.3C523.2 36.6 522.5 35.5 521.9 35.2 521 34.8 520.1 35.6 519.8 36.3L517.4 44.4 514.1 38.2C513.7 37.3 512.6 37.1 511.9 37.7 510.9 38.2 510.7 39.3 511.4 40L516.4 48.9 513 59.7 501.9 39.4C501.4 38.4 500.3 38.2 499.6 38.9 498.7 39.3 498.5 40.4 499.1 41.1L511.8 64.4 505.2 87.2 488.6 69.9 489.1 43.2C489.1 42.3 488.5 41.6 487.6 41.6 486.7 41.5 486 42.2 486 43.1L485.5 66.6 477.5 58.3 477.7 48.4C477.7 47.5 477.1 46.8 476.2 46.8 475.2 46.8 474.6 47.4 474.5 48.3L474.4 55.1 468.2 48.7C467.8 47.7 466.6 47.9 465.9 48.6 465.2 49.3 465.2 50.2 465.9 50.9L471.7 56.9 464.9 56.7C464 56.7 463.3 57.4 463.3 58.3S463.9 59.9 464.8 59.9L474.8 60.1 482.7 68.4 459.2 67.9C458.3 67.9 457.6 68.6 457.6 69.5 457.6 70.4 458.2 71.1 459.2 71.1L485.8 71.6 502.3 88.7 479.3 94.4 457.1 81C456.2 80.6 455.3 81 454.6 81.7 454.2 82.6 454.6 83.5 455.3 84.2L475.2 96.1 464 98.8 455.3 93.4C454.4 93 453.5 93.4 452.8 94.1 452.3 95 452.8 95.9 453.2 96.3L459.3 99.9 451.1 102C450.4 102.2 449.5 103.1 449.9 104 450.3 104.9 451 105.6 451.9 105.1L460.1 103 456.6 109.1C456.1 110 456.6 110.9 457 111.3 457.7 111.6 458.6 111.6 459 111.2 459 111.2 459.3 110.9 459.3 110.9L464.6 102.2 475.8 99.5 463.9 119.4C463.4 120.3 463.8 121.2 464.3 121.7 464.9 121.9 465.8 121.9 466.3 121.5 466.3 121.5 466.5 121.3 466.5 121.3L480.1 98.5 503.1 92.8 496.5 115.5 473.2 128.2C472.3 128.6 472 129.8 472.7 130.4 473.1 131.4 474.3 131.6 474.9 130.9L495.3 119.8 492.1 130.8 483.2 135.9C482.3 136.3 482.1 137.4 482.7 138.1 483.2 139 484.3 139.3 485 138.6L491.2 135.3 488.7 143.4C488.5 144.1 489.1 145.3 489.8 145.5 490.5 145.7 491.2 145.5 491.6 145.1 491.9 144.9 492.1 144.6 492.1 144.2L494.5 136.1 497.8 142.3C498.2 143.2 499.4 143.4 500.1 142.8 500.1 142.8 500.3 142.5 500.3 142.5 500.8 142.1 500.8 141.2 500.6 140.5L495.5 131.6 498.7 120.5 509.8 140.9C510.3 141.8 511.4 142.1 512.1 141.4 512.1 141.4 512.3 141.2 512.3 141.2 512.8 140.7 512.8 139.8 512.6 139.2L499.9 115.8 506.5 93.1 522.9 110.2 522.4 136.9C522.3 137.8 523 138.5 523.9 138.5 524.8 138.5 525.5 137.8 525.5 136.9L526.2 113.6 534.2 121.9 534 131.9C534 132.8 534.6 133.5 535.5 133.5S537.1 132.8 537.2 131.9L537.3 125.2 543.1 131.2C543.7 131.8 544.6 131.9 545.3 131.2 546 130.5 546 129.6 545.4 128.9L539.6 122.9 546.4 123.1C546.8 123.1 547.3 123.1 547.8 122.6S548.2 121.7 548.2 121.3C548.3 120.4 547.6 119.7 546.7 119.7L536.7 119.5 528.7 111.2 552.3 111.6C552.7 111.7 553.2 111.7 553.6 111.2 553.9 111 554.1 110.3 554.1 109.9 554.1 109 553.5 108.3 552.6 108.3L525.9 107.7 509.5 90.7 532.4 85 555.2 98.6C555.9 98.8 556.8 98.8 557.3 98.4 557.3 98.4 557.5 98.2 557.5 98.2 558 97.3 557.6 96.4 557.1 95.9L537.2 84 548.3 81.2 557.1 86.6C557.7 86.9 558.6 86.9 559.1 86.4 559.1 86.4 559.3 86.2 559.3 86.2 559.8 85.3 559.4 84.4 558.9 83.9L552.9 80.4 561.1 78.3C561.3 78.1 561.8 78.1 562 77.9 562.5 77.4 562.7 76.8 562.5 76.1 562 75.2 561.4 74.5 560.5 74.9L552.3 77 555.8 71C556.3 70.1 555.8 69.2 555.4 68.7 554.5 68.2 553.6 68.7 553.1 69.1L547.7 77.8 536.6 80.6 548.5 60.6C549 59.8 548.6 58.8 548.1 58.4 546.8 58.3 545.6 58.6 545.2 59.4Z" fill="rgba(51, 121, 194, 0.58)"></path>
        <!-- <path d="M794.5 168.3L770.3 179.4 748.2 171 766.5 156 792.9 158.8C792.9 158.8 793.2 158.8 793.2 158.8 793.9 158.7 794.4 157.9 794.6 157.2 794.8 156.2 794 155.4 793 155.5L769.9 153.2 778.8 145.9 789 146.8C789 146.8 789.3 146.8 789.3 146.8 790 146.6 790.5 145.9 790.7 145.2 790.9 144.2 790.1 143.4 789.1 143.5L782.2 142.7 788.8 137.4C789.3 137 789.5 135.7 789 135.1 788.6 134.2 787.3 134.4 786.7 134.9L780.1 140.1 780.9 133.2C781.1 132.2 780.3 131.4 779.4 131.5 778.4 131.4 777.5 132.1 777.7 133.1L776.8 143.3 767.8 150.3 770.2 127.2C770.4 126.2 769.6 125.3 768.7 125.5 767.7 125.3 766.8 126.1 767 127.1L764.2 153.5 745.9 168.5 742 144.8 757.6 123.1C758.1 122.4 757.9 121.4 757.2 120.9 756.5 120.4 755.5 120.5 755 121.2L741.3 140.4 739.4 129 745.2 120.9C745.7 120.2 745.6 119.2 744.8 118.7 744.1 118.2 743.2 118.3 742.6 119.1L738.7 124.6 737.2 115.7C737.4 114.7 736.3 114.2 735.4 114.4 734.4 114.6 733.9 115.3 734.1 116.2L735.4 124.5 729.9 120.5C729.2 120 728.2 120.1 727.7 120.9S727.3 122.5 728 123.1L736.1 128.9 738 140.2 718.9 126.5C718.1 126 717.2 126.1 716.7 126.9 716.1 127.6 716.3 128.6 717 129.1L738.7 144.7 742.5 168 720.4 159.7 709.8 136.1C709.3 135.2 708.3 135.1 707.3 135.2 706.4 135.7 706.3 136.7 706.4 137.6L716.1 158.7 705.3 154.7 701.2 145.3C700.7 144.4 699.7 144.2 698.8 144.4 697.9 144.9 697.7 145.9 697.8 146.5L700.8 152.8 692.9 149.9C692.2 149.7 690.9 149.9 690.8 150.9 690.6 151.9 690.8 152.8 691.8 153L699.7 155.9 693.4 158.9C692.5 159.4 692.3 160.4 692.4 161 692.8 161.6 693.6 162.1 694.2 162 694.2 162 694.5 161.9 694.5 161.9L703.9 157.8 714.6 161.9 693.5 171.5C692.6 172 692.4 173 692.6 173.6 693 174.2 693.7 174.7 694.3 174.6 694.3 174.6 694.7 174.6 694.7 174.6L718.8 163.5 740.9 171.9 722.6 186.9 696.2 184C695.2 183.9 694.4 184.7 694.5 185.6 694.4 186.6 695.1 187.5 696.1 187.3L719.2 189.7 710.3 197 700.1 196.1C699.1 195.9 698.3 196.7 698.4 197.6 698.3 198.6 699.1 199.5 700 199.3L706.9 200.1 700.4 205.4C699.8 205.8 699.7 207.2 700.1 207.7 700.5 208.3 701.2 208.5 701.8 208.4 702.1 208.4 702.4 208.3 702.7 208L709.3 202.7 708.5 209.6C708.3 210.6 709.1 211.4 710.1 211.3 710.1 211.3 710.4 211.2 710.4 211.2 711 211.1 711.5 210.4 711.8 209.7L712.7 199.5 721.5 192.2 719.2 215.3C719 216.3 719.8 217.2 720.7 217 720.7 217 721 216.9 721 216.9 721.7 216.8 722.2 216.1 722.4 215.4L725.2 189 743.5 174 747.4 197.4 731.8 219.1C731.2 219.8 731.4 220.8 732.1 221.3 732.9 221.8 733.8 221.7 734.3 220.9L748.1 202.1 750 213.5 744.2 221.6C743.7 222.3 743.8 223.3 744.5 223.8S746.2 224.2 746.8 223.4L750.7 217.9 752.1 226.1C752.2 227.1 753 227.6 753.9 227.5 754.8 227.3 755.4 226.6 755.2 225.6L753.9 217.4 759.4 221.4C759.8 221.6 760.1 221.9 760.8 221.8S761.6 221.3 761.9 221C762.4 220.2 762.3 219.3 761.6 218.7L753.5 212.9 751.6 201.6 770.7 215.3C771.1 215.6 771.4 215.8 772.1 215.7 772.4 215.7 773 215.3 773.2 214.9 773.8 214.1 773.6 213.2 772.9 212.7L751.2 197.1 747.4 173.7 769.5 182.1 780.6 206.2C781 206.8 781.7 207.3 782.4 207.2 782.4 207.2 782.7 207.2 782.7 207.2 783.6 206.7 783.7 205.7 783.6 205.1L774 184 784.7 188 788.9 197.4C789.3 198 790 198.5 790.6 198.4 790.6 198.4 791 198.4 791 198.4 791.9 197.9 792 196.9 791.9 196.3L788.9 189.9 796.9 192.9C797.2 192.8 797.6 193.1 797.9 193 798.5 192.9 799.1 192.5 799.3 191.8 799.5 190.8 799.3 189.9 798.3 189.7L790.4 186.8 796.7 183.8C797.6 183.3 797.7 182.3 797.6 181.7 797.2 180.8 796.2 180.6 795.5 180.8L786.2 184.9 775.4 180.8 796.6 171.2C797.5 170.7 797.6 169.7 797.5 169.1 796.4 168.3 795.4 167.8 794.5 168.3Z" fill="rgba(51, 121, 194, 0.58)"></path> -->
        <!-- <path d="M382 292.6L383.9 281.6 389.2 285.6C389.8 286.1 390.8 286.1 391.5 285.4 391.9 284.6 391.9 283.6 391 283.2L384.5 277.9 385.6 269.2 399.2 280.4C400 280.7 401 280.7 401.5 280.2 402.2 279.2 402.1 278.2 401.3 277.8L386.2 265.5 388.2 252.4 399 263.3 399.6 247.9 410 256.2 407.3 275.5C407 275.6 407.1 275.9 407.2 276.2 407.4 276.8 408 277.3 408.7 277.4 409.4 277.4 410.2 276.8 410.5 275.9L413 258.5 419.6 264.1 418.4 272.5C418.3 272.9 418.4 273.2 418.5 273.5 418.6 273.8 419.1 274.3 419.9 274.4 420.6 274.4 421.4 273.8 421.4 273.1L422.6 266.4 431.5 273.3C432.1 274 433 273.7 433.8 273 434.3 272.5 434.2 271.5 433.3 270.8L424.7 263.9 431 261.4C431.8 261.1 432.1 260 431.9 259.4 431.5 258.5 430.7 258.1 429.8 258.5L421.7 261.6 415.1 256 431.2 249.7C432.1 249.3 432.4 248.5 432.1 247.6 431.8 247 430.9 246.3 430 246.7L412.1 253.7 401.7 245.4 416.3 241.4 403.5 233.3 416 228.5 431 240.5C431.9 241.1 432.8 240.8 433.3 240.2 433.8 239.7 433.7 238.7 433.1 237.9L419.3 227.2 427.3 224 434.2 229.3C434.8 230 435.8 230 436.5 229 437 228.5 436.9 227.5 436 226.8L430.9 222.6 441.3 218.6C442.2 218.2 442.6 217.4 442.2 216.5S441.1 215.2 440.2 215.6L429.7 219.6 430.6 213.1C430.9 212 430.2 211.2 429.5 211.1 428.4 210.9 427.6 211.5 427.7 212.6L426.2 221 418.1 224.2 421 206.9C420.9 205.9 420.3 205.1 419.6 205.1 418.4 204.8 417.7 205.5 417.7 206.5L414.8 225.5 402.3 230.4 406.2 215.8 392.8 222.7 394.9 209.6 412.8 202.6C413.7 202.2 413.9 201.1 413.7 200.5 413.3 199.6 412.5 199.2 411.6 199.6L395.2 206 396.6 197.2 404.6 194.1C405.5 193.7 405.9 192.9 405.5 192 405.3 191.4 404.4 190.7 403.5 191.1L397.2 193.5 398.8 182.6C399 181.5 398.4 180.7 397.4 180.8 396.7 180.7 395.8 181.1 395.8 182.1L393.9 193.1 388.6 189C388 188.5 387 188.6 386.5 189.1 386.1 189.7 386 190.4 386.1 190.7 386.2 191 386.3 191.3 386.8 191.4L393.3 196.8 392.2 205.4 378.6 194.3C377.8 193.9 376.8 194 376.3 194.5 375.8 195 375.7 195.7 376 196.3 376.1 196.6 376.1 196.6 376.5 196.8L391.6 209.1 389.5 222.3 378.8 211.4 378.2 226.7 367.8 218.4 370.5 199.2C370.6 198.4 370.3 197.5 369.1 197.3 368.4 197.2 367.6 197.9 367.3 198.7L364.8 216.2 358.1 210.5 359.3 202.2C359.7 201.3 359.1 200.6 357.9 200.3 357.2 200.2 356.4 200.9 356.1 201.7L355.2 208.2 346.3 201.4C345.7 200.6 344.8 201 344 201.6 343.8 202 343.8 202.7 343.9 203 344 203.3 344.1 203.6 344.5 203.8L353.1 210.8 346.8 213.2C345.9 213.6 345.7 214.7 345.9 215.3L345.9 215.3C346.3 216.2 347.1 216.6 348 216.2L356 213.1 362.7 218.7 346.6 225C345.7 225.3 345.4 226.2 345.7 227.1S346.9 228.3 347.8 228L365.7 221 376.1 229.3 361.5 233.3 374.3 241.3 361.8 246.2 346.8 234.2C345.8 233.5 344.9 233.9 344.5 234.4 344 235 344 236 344.7 236.7L358.2 247.6 350.5 250.6 343.6 245.4C343 244.6 342 244.7 341.3 245.6 340.8 246.2 340.9 247.2 341.5 248L346.9 252 336.5 256.1C335.6 256.5 335.2 257.3 335.5 258.2S336.7 259.4 337.6 259.1L348 255 347.2 261.5C347 262 347.1 262.3 347.2 262.6 347.5 263.2 347.9 263.3 348.3 263.5 349.4 263.8 350.2 263.1 350.1 262.1L351.6 253.6 359.7 250.5 356.8 267.7C356.9 268 357 268.3 357.2 268.6 357.4 269.2 357.8 269.4 358.2 269.6 359.3 269.8 360.1 269.2 360.1 268.2L363 249.2 375.5 244.3 371.6 258.9 385 251.9 382.9 265.1 365 272.1C364.1 272.4 363.9 273.6 364.1 274.2 364.5 275.1 365.3 275.4 366.2 275.1L382.3 268.8 381.2 277.4 373.2 280.6C372.3 280.9 371.9 281.8 372.3 282.7S373.4 283.9 374.3 283.6L380.6 281.1 379 292C378.8 292.5 379 292.8 379.1 293.1 379.2 293.4 379.7 293.8 380.4 293.9 381.1 294 382 293.6 382 292.6ZM376.4 252.9L379.7 240.9 369.2 234.4 381.3 231 381.7 218.9 390.5 227.4 401.4 221.8 398.1 233.7 408.6 240.3 396.8 243.5 396.1 255.8 387.6 247.1 376.4 252.9Z" fill="rgba(51, 121, 194, 0.58)"></path> -->
        <!-- <path d="M116.1 173.2L131.7 167 130.6 177C130.4 178.1 131.3 179.3 132.7 179.8 134.1 179.6 135.3 178.8 135.2 177.4L136.9 164.9 148.8 159.5 145.2 185.7C145.3 187 146.2 188.3 147.3 188.5 149 188.6 150.2 187.7 150.1 186.4L154 157.4 172.5 149.8 167 172.1 187 160.9 184.6 180.7 157.7 192.2C157.3 191.9 157 192.3 156.7 192.7 156.1 193.5 155.9 194.5 156.4 195.5 156.9 196.4 158.3 196.9 159.7 196.8L183.9 186.3 181.9 199.3 170.3 204.2C169.6 204.3 169.3 204.7 169 205.1 168.7 205.5 168.5 206.5 169 207.5 169.5 208.5 170.9 209 171.9 208.5L181.3 204.8 179.4 221.5C178.9 222.9 180.1 223.8 181.5 224.3 182.6 224.5 183.8 223.7 183.9 221.9L186.2 205.5 194.2 211.6C195.3 212.5 197 212 197.6 211.2 198.4 210.1 198.3 208.7 197.1 207.8L186.8 200 188.8 187 209.4 202.8C210.6 203.6 211.9 203.4 212.8 202.3 213.4 201.5 213.5 199.8 212.4 198.9L189.5 181.5 191.9 161.6 208.4 177.2 208.8 154.6 224.8 166.8 221.1 195.4C221 197.1 222.2 198 223.2 198.2 224.3 198.4 225.5 197.5 226 196.1L229 170 239.3 177.9 238 190.7C237.5 192.1 238.3 193.4 240 193.5 241.1 193.7 242.4 192.9 242.5 191.1L243.9 181.4 257.2 191.5C258.4 192.4 259.7 192.2 260.6 191.1S261.3 188.6 260.2 187.7L246.8 177.5 255.9 173.6C257.5 173 258 171.6 257.5 170.6 257 169 255.5 168.5 254.3 169.3L242.2 174 231.9 166.2 256.3 156.4C257.6 155.5 258 154.1 257.6 153.1 257 151.5 255.6 151 254.3 151.9L227.7 163 211.7 150.7 233.5 144.4 214.1 132.6 232.6 125 255.5 142.5C256.6 143.3 258.2 142.8 258.8 142 259.7 140.9 259.5 139.5 258.4 138.7L237.4 122.6 249.7 117.6 260 125.4C261.2 126.3 262.5 126.1 263.4 125 264 124.2 264.1 122.5 262.9 121.6L254.9 115.5 270.1 109C271.8 108.4 272.3 107 271.4 105.7 271 104.8 269.8 103.9 268.6 104.8L252.9 111 254 100.9C254.2 99.8 253.3 98.6 252.3 98.4 251.2 98.2 250.3 98.6 250 99 249.7 99.4 249.4 99.8 249.5 100.5L247.7 113 235.8 118.4 239.5 92.2C239.3 90.9 238.4 89.6 237.4 89.4 236.3 89.2 235.4 89.7 234.8 90.5 234.5 90.8 234.5 90.8 234.6 91.5L230.6 120.5 212.1 128.1 217.7 105.8 197.6 117 200.1 97.2 227 85.7C227.9 85.2 228.8 84.1 228.2 82.4 227.8 81.5 226.3 81 225 81.2L200.7 91.6 202.7 78.7 214.4 73.7C215.7 73.5 216.2 72.1 215.7 70.4 215.2 69.5 213.8 69 212.4 69.1L203.3 73.1 205.2 56.4C205.7 55 204.6 54.1 203.1 53.6 202.5 53.7 201.5 54.2 201.2 54.5 200.9 54.9 200.6 55.3 200.7 56L198.5 72.4 190.4 66.3C189.3 65.4 187.7 66 187.1 66.7L187.1 66.7C186.2 67.9 186.4 69.2 187.5 70.1L197.8 77.9 195.8 90.9 175.2 75.2C174.1 74.3 172.7 74.5 171.8 75.6S171.1 78.1 172.3 79L195.2 96.5 192.7 116.3 176.2 100.7 175.8 123.4 159.8 111.1 163.5 82.5C163.6 80.8 162.5 79.9 161.4 79.7 160.4 79.5 159.1 80.4 158.6 81.8L155.2 107.6 145.3 100.1 146.7 87.2C147.2 85.8 146.3 84.5 144.6 84.4 143.5 84.2 142.3 85.1 141.8 86.5L140.7 96.6 127.4 86.4C126.2 85.5 124.9 85.7 124 86.8S123.3 89.3 124.5 90.2L137.8 100.4 128.8 104.3C128.1 104.4 127.8 104.8 127.5 105.2 126.9 105.9 127 106.6 127.1 107.3 127.7 108.9 129.1 109.4 130.4 108.6L142.4 103.9 152.7 111.7 128.3 121.5C128 121.9 127.8 122.3 127.5 122.7 126.9 123.4 127 124.1 127.1 124.8 127.6 126.4 129.1 126.9 130.3 126L156.9 114.9 172.9 127.2 151.2 133.5 170.6 145.3 152.1 152.9 129.2 135.4C128 134.6 126.4 135.1 125.8 135.9 124.9 137 125.1 138.4 126.3 139.3L146.9 155 134.9 160.4 124.6 152.5C123.5 151.6 122.1 151.8 121.3 152.9S120.6 155.4 121.7 156.3L129.7 162.4 114.5 168.9C113.8 169 113.5 169.4 113.2 169.8 112.9 170.1 112.7 171.2 113.2 172.2 113.7 173.1 114.8 174 116.1 173.2ZM162.7 135.1L180.5 129.9 180.7 111.4 194.5 124.3 210.4 115.3 206.3 133.3 222 142.9 204.1 148 203.9 166.5 190.6 153.9 174.3 162.6 178.7 144.9 162.7 135.1Z" fill="rgba(51, 121, 194, 0.58)"></path> -->
        <path d="M425.1 400.9L427.8 432.7 420.2 441.5 419.3 430.7C419.5 429.6 418.4 429 417.2 428.7 416.3 429 415.3 430 415.6 430.9L416.5 445.7 409.2 454.5 405.5 443.7 412 430.2C412 430.2 412.1 429.9 412.1 429.9 412.2 429.1 411.6 428.1 410.9 427.6 409.7 427.4 408.9 427.6 408.2 428.7L403.6 438.5 399.9 427.6 413.3 398.8C413.3 398.8 413.7 398.4 413.7 398.4 413.9 397.7 413.2 396.7 412.5 396.2 411.4 395.6 410.1 396.2 409.9 397.3L398 422.4 393.1 409.3 398.4 398.1C398.4 398.1 398.4 398.1 398.4 397.7 398.6 396.9 398.3 396 397.6 395.5 396.4 395.3 395.2 395.5 394.6 396.6L391.2 404.1 387.6 394.5C387.5 393.3 386.3 393 385.4 393.3 384.2 393.5 383.6 394.6 384.1 395.9L387.3 405.4 380.2 401.7C379 401.5 377.8 401.7 377.6 402.8 377 404 377.2 404.8 378.3 405.4L389.6 410.7 394.1 423.7 368.6 411.8C367.9 411.3 366.6 411.8 366 412.9 365.8 413.7 366 415 367.1 415.6L396 429 399.7 439.8 390 435.2C388.9 434.6 388 435.2 387.3 436.3 386.8 437 387.4 438.4 388.1 438.9L401.6 445 405.7 455.9 394.3 453.9 386 441.8C385.3 440.8 384.1 440.6 383.2 441.3 382.3 441.5 382.1 443.1 382.7 444L388.8 452.9 377.4 450.8 359.4 424.3C358.8 423.4 357.6 423.2 356.7 423.8 355.8 424.5 355.5 425.7 356.2 426.6L371.9 449.8 358.5 447.4 351.4 437.1C350.8 436.2 349.6 436 348.7 436.6 347.7 437.3 347.5 438.4 348.2 439.4L352.6 446.3 342.8 444.5C341.6 444.3 340.7 444.9 340.4 446.1 340.2 447.3 340.9 448.2 342.1 448.4L351.9 450.2 345.4 454.7C344.5 455.4 344.2 456.6 344.9 457.5S346.7 458.6 347.6 458L357.4 451.2 371.2 453.7 348.4 469.5C347.5 470.1 347.2 471.3 347.9 472.3 348.5 473.2 349.7 473.4 350.6 472.8L376.7 454.7 388.1 456.8 379.3 462.9C378.3 463.6 378.1 464.7 378.8 465.7 379.4 466.6 380.6 466.8 381.5 466.2L393.6 457.8 404.6 459.8 397.4 468.2 382.5 469.6C381.7 469.9 380.7 470.9 380.9 471.8 381.1 473 381.8 473.5 383 473.8L393.7 472.9 386.5 481.3 354.7 484.1C353.4 484.2 352.9 485 352.7 486.1 352.9 487.4 354 488 354.8 488.1L382.8 485.9 373.6 496.4 361.6 497.5C360.4 497.3 359.8 498.4 359.6 499.6 359.8 500.4 360.9 501.4 362.1 501.3L370 500.7 363.7 508.5C362.7 509.1 362.9 510.4 364 511.4 364.7 511.9 365.9 511.7 366.5 511L373.2 503.3 373.7 511.5C373.9 512.8 375 513.4 375.8 513.1 377 513.3 377.6 512.6 377.7 511.8 377.8 511.4 377.8 511.4 377.8 511L376.8 499.1 386 488.5 388.3 516.2C388.1 517.4 389.2 518 390.4 518.2 391.2 517.9 391.8 517.2 391.9 516.4 392 516 392 516 392 516L389.7 483.9 396.9 475.5 397.8 486.2C398 487.5 398.7 488 399.9 488.2 400.7 488 401.7 487.3 401.8 486.5 401.9 486.1 401.9 486.1 402 485.7L400.6 470.9 407.8 462.4 411.6 472.9 405.5 486.4C404.9 487.5 405.5 488.8 406.2 489.4 407.4 489.6 408.6 489.4 408.8 488.2L413.4 478.5 417.6 489 403.8 518.2C403.2 518.9 403.8 520.2 404.5 520.8 405.7 521 407 520.8 407.6 519.7L419.4 494.6 424 507.6 418.8 518.5C418.2 519.6 418.7 520.9 419.9 521.1 420.6 521.7 421.9 521.5 422.5 520.4L425.9 512.9 429.4 522.4C429.7 523.3 430.8 523.9 432 523.7 432.5 523.4 433 522.7 433.2 521.9 433.2 521.9 433.3 521.5 433.3 521.1L429.8 511.5 437.3 514.9C438 515.5 439.3 514.9 439.9 514.2 439.9 513.8 439.9 513.8 439.9 513.8 440.2 512.6 439.5 511.7 438.7 511.5L427.9 506.3 423 493.2 448.4 505.2C449.6 505.4 450.5 505.1 451.1 504 451.1 504 451.1 503.6 451.1 503.6 451.3 502.8 451 502 449.9 501.4L421.1 487.6 417.3 477.2 427.1 481.8C428.2 482 429.5 481.8 429.7 480.6 430.1 480.7 430.2 480.3 430.2 480.3 430.3 479.5 429.7 478.6 429 478L415.4 471.9 411.7 461.1 422.7 463.1 431.1 475.2C431.8 476.1 433.3 476.4 434.3 475.8 434.8 475 435 473.9 434.8 473L428.2 464.1 439.7 466.2 457.7 492.2C458.3 493.1 459.5 493.4 460.4 492.7 461.4 492.1 461.6 490.9 460.9 490L445.2 467.2 458.9 469.7 465.7 479.4C466.3 480.4 467.5 480.6 468.5 479.9S469.6 478.1 469 477.2L464.5 470.7 474.3 472.5C475.5 472.7 476.4 472 476.6 470.8 476.8 469.7 476.2 468.7 475 468.5L465.2 466.7 471.7 461.8C472.2 461.5 472.7 461.2 472.8 460.8 472.8 460.4 472.6 459.5 472.2 459.1 471.6 458.1 470.4 457.9 469.5 458.6L459.7 465.7 445.9 463.2 468.7 447.1C469.2 446.7 469.7 446.4 469.7 446 469.8 445.6 469.6 444.8 469.2 444.3 468.6 443.4 467.4 443.2 466.5 443.8L440.4 462.2 429 460.2 438.2 454.1C438.7 453.8 438.8 453 438.9 452.6 438.9 452.2 439 451.8 438.7 451.4 438 450.4 436.5 450.1 435.9 450.9L423.5 459.2 412.4 457.2 419.7 448.3 434.5 447.3C435.4 447.1 436.3 446.5 436.5 445.7 436.5 445.3 436.5 445.3 436.1 445.2 436.4 444 435.3 443 434.1 443.2L423.3 444.1 430.6 435.3 462.8 433C463.6 432.7 464.2 432 464.3 431.2 464.4 430.8 464.4 430.8 464.4 430.8 464.2 429.6 463.6 428.6 462.3 428.8L434.3 431 443.5 420.5 455.5 419.4C456.7 419.3 457.3 418.5 457.4 417.8 457.4 417.8 457.5 417.4 457.5 417.4 457.3 416.1 456.2 415.5 455.4 415.4L447.1 416.3 453.8 408.6C453.9 408.2 453.9 407.8 454 407.4 454.1 407 453.8 406.1 453.5 405.7 452.4 405.1 451.2 404.8 450.6 406L443.9 413.7 443.4 405.5C443.2 404.2 442.1 403.6 441.3 403.4 440 403.6 439.4 404.7 439.2 405.9L440.3 417.9 431.5 428.5 429.2 400.8C429 399.6 428 398.6 427.1 398.8 425.8 399 424.9 399.7 425.1 400.9Z" fill="rgba(51, 121, 194, 0.58)"></path>
        <path d="M1327.2 354.2L1359 352.5 1367.5 360.4 1356.8 361C1355.6 360.7 1355 361.8 1354.7 363 1354.9 363.8 1355.9 364.9 1356.8 364.7L1371.7 364.2 1380.2 371.7 1369.3 375.1 1356.1 368.2C1356.1 368.2 1355.7 368.1 1355.7 368.1 1354.9 367.9 1353.9 368.5 1353.4 369.2 1353.1 370.4 1353.3 371.3 1354.4 371.9L1364 376.8 1353.1 380.2 1324.6 365.9C1324.6 365.9 1324.3 365.4 1324.3 365.4 1323.5 365.3 1322.6 365.9 1322 366.6 1321.4 367.7 1321.9 369 1323.1 369.3L1347.8 381.9 1334.5 386.5 1323.5 380.8C1323.5 380.8 1323.5 380.8 1323.1 380.7 1322.3 380.6 1321.4 380.8 1320.9 381.5 1320.6 382.7 1320.8 383.9 1321.9 384.6L1329.3 388.2 1319.6 391.4C1318.3 391.6 1318 392.7 1318.3 393.6 1318.4 394.9 1319.5 395.5 1320.8 395L1330.4 392.1 1326.5 399.1C1326.3 400.2 1326.4 401.5 1327.6 401.7 1328.7 402.4 1329.5 402.2 1330.2 401.1L1335.8 390 1349 385.9 1336.2 411C1335.7 411.7 1336.2 413 1337.3 413.6 1338.1 413.8 1339.3 413.7 1340 412.6L1354.3 384.2 1365.2 380.8 1360.3 390.4C1359.6 391.5 1360.3 392.4 1361.3 393 1362 393.6 1363.4 393.1 1363.9 392.4L1370.5 379.1 1381.5 375.3 1379.1 386.6 1366.7 394.6C1365.8 395.2 1365.5 396.4 1366.1 397.4 1366.4 398.2 1367.9 398.6 1368.9 397.9L1377.9 392.1 1375.5 403.5 1348.5 420.6C1347.5 421.2 1347.3 422.3 1347.9 423.3 1348.5 424.2 1349.7 424.5 1350.6 423.9L1374.3 408.9 1371.4 422.2 1361 429C1360 429.6 1359.8 430.8 1360.4 431.7 1361 432.7 1362.2 432.9 1363.1 432.3L1370.2 428.1 1368.1 437.9C1367.8 439 1368.4 440 1369.6 440.2 1370.8 440.5 1371.7 439.9 1372 438.7L1374.1 428.9 1378.4 435.6C1379 436.5 1380.2 436.8 1381.1 436.2S1382.3 434.4 1381.7 433.4L1375.3 423.5 1378.2 409.8 1393.2 433.1C1393.9 434 1395 434.3 1396 433.6 1396.9 433 1397.2 431.9 1396.6 430.9L1379.4 404.3 1381.8 393 1387.7 402C1388.3 402.9 1389.4 403.2 1390.4 402.6 1391.3 402 1391.6 400.8 1391 399.8L1383 387.5 1385.4 376.5 1393.6 384 1394.4 398.9C1394.7 399.8 1395.7 400.8 1396.5 400.6 1397.8 400.5 1398.4 399.8 1398.6 398.6L1398.1 387.9 1406.3 395.3 1408 427.2C1408.1 428.5 1408.8 429 1410 429.3 1411.3 429.2 1411.9 428.1 1412.1 427.3L1410.8 399.2 1421 408.7 1421.7 420.8C1421.4 421.9 1422.5 422.6 1423.7 422.8 1424.5 422.6 1425.6 421.6 1425.4 420.3L1425.1 412.5 1432.7 419C1433.3 420 1434.5 419.8 1435.6 418.8 1436.1 418.1 1436 416.9 1435.3 416.3L1427.8 409.4 1436 409.1C1437.3 409 1437.9 407.9 1437.7 407 1438 405.8 1437.3 405.3 1436.5 405.1 1436.1 405 1436.1 405 1435.7 405L1423.7 405.6 1413.5 396.1 1441.2 394.7C1442.4 394.9 1443 393.8 1443.3 392.7 1443 391.8 1442.3 391.2 1441.6 391.1 1441.2 391 1441.2 391 1441.2 391L1409 392.2 1400.8 384.8 1411.5 384.2C1412.8 384.1 1413.3 383.4 1413.6 382.2 1413.4 381.3 1412.8 380.4 1412 380.2 1411.6 380.1 1411.6 380.1 1411.2 380L1396.3 380.9 1388.1 373.4 1398.6 370 1412 376.5C1413 377.2 1414.4 376.6 1414.9 375.9 1415.2 374.8 1415.1 373.5 1413.9 373.3L1404.3 368.3 1415 364.5 1443.7 379.3C1444.4 379.8 1445.7 379.3 1446.3 378.6 1446.5 377.4 1446.4 376.2 1445.3 375.5L1420.6 362.8 1433.8 358.7 1444.5 364.3C1445.5 364.9 1446.9 364.4 1447.1 363.2 1447.7 362.5 1447.6 361.3 1446.5 360.6L1439.1 357 1448.8 353.8C1449.6 353.5 1450.3 352.4 1450.1 351.2 1449.8 350.7 1449.1 350.2 1448.3 350 1448.3 350 1448 349.9 1447.6 349.8L1437.9 353 1441.5 345.6C1442.1 344.9 1441.5 343.6 1440.8 343 1440.4 343 1440.4 343 1440.4 343 1439.3 342.7 1438.3 343.3 1438.2 344.1L1432.6 354.8 1419.3 359.3 1432.1 334.2C1432.4 333 1432.1 332.2 1431 331.5 1431 331.5 1430.7 331.4 1430.7 331.4 1429.9 331.3 1429 331.5 1428.4 332.6L1413.7 360.9 1403.1 364.4 1408 354.8C1408.3 353.6 1408.1 352.4 1407 352.1 1407.1 351.7 1406.7 351.7 1406.7 351.7 1405.9 351.5 1404.9 352.1 1404.4 352.8L1397.8 366.1 1386.9 369.5 1389.2 358.5 1401.6 350.6C1402.5 349.9 1402.9 348.4 1402.3 347.4 1401.6 346.9 1400.4 346.6 1399.5 346.8L1390.4 353.1 1392.8 341.7 1419.5 324.5C1420.4 323.9 1420.7 322.7 1420 321.8 1419.4 320.8 1418.3 320.6 1417.3 321.2L1394 336.3 1397 322.6 1406.9 316.1C1407.9 315.5 1408.1 314.3 1407.5 313.4S1405.7 312.2 1404.8 312.8L1398.1 317.1 1400.2 307.3C1400.5 306.1 1399.9 305.2 1398.7 304.9 1397.5 304.7 1396.6 305.3 1396.3 306.5L1394.2 316.2 1389.5 309.5C1389.2 309 1388.9 308.6 1388.5 308.5 1388.2 308.4 1387.3 308.6 1386.8 308.9 1385.9 309.5 1385.6 310.7 1386.2 311.7L1393.1 321.7 1390.1 335.4 1374.7 312C1374.4 311.6 1374.1 311.1 1373.7 311 1373.3 310.9 1372.4 311.1 1371.9 311.5 1371 312.1 1370.7 313.2 1371.4 314.2L1388.9 340.9 1386.5 352.2 1380.7 342.8C1380.4 342.3 1379.7 342.2 1379.3 342.1 1378.9 342 1378.5 341.9 1378 342.2 1377.1 342.8 1376.7 344.4 1377.4 345L1385.3 357.7 1383 368.6 1374.4 361.1 1373.9 346.2C1373.6 345.4 1373 344.4 1372.3 344.3 1371.9 344.2 1371.9 344.2 1371.8 344.6 1370.6 344.3 1369.6 345.3 1369.7 346.6L1370.3 357.3 1361.7 349.7 1360.4 317.6C1360.2 316.7 1359.5 316.1 1358.7 316 1358.3 315.9 1358.3 315.9 1358.3 315.9 1357 316 1356.1 316.6 1356.2 317.9L1357.6 346 1347.3 336.4 1346.7 324.4C1346.5 323.2 1345.8 322.6 1345 322.4 1345 322.4 1344.6 322.4 1344.6 322.4 1343.4 322.5 1342.7 323.6 1342.6 324.4L1343.2 332.7 1335.7 325.8C1335.3 325.7 1334.9 325.6 1334.6 325.5 1334.2 325.4 1333.3 325.6 1332.8 325.9 1332.2 327 1331.9 328.2 1333 328.9L1340.5 335.8 1332.3 336.1C1331 336.2 1330.4 337.3 1330.2 338.1 1330.4 339.3 1331.4 340 1332.6 340.2L1344.6 339.5 1354.9 348.7 1327.2 350.1C1326 350.2 1324.9 351.3 1325.1 352.1 1325.3 353.4 1325.9 354.3 1327.2 354.2Z" fill="rgba(51, 121, 194, 0.58)"></path>
        <path d="M1201.2 228.9L1216.5 192.3 1226.6 187.9 1246 202.8 1244.7 213.9 1213 237.9C1212.7 238.3 1212.7 238.3 1212.4 238.7 1211.8 239.5 1211.6 240.5 1212.4 241.8 1213.6 242.6 1214.6 242.8 1215.9 242L1243.6 220.9 1241.4 238 1229.3 247.4C1229.3 247.4 1229 247.8 1229 247.8 1228.4 248.6 1228.2 249.6 1229.1 250.9 1229.5 251.8 1231.2 252 1232.5 251.1L1240.6 245.2 1238.9 257.8C1238.7 258.9 1239.5 260.1 1240.9 260.6S1243.6 259.6 1244 258.1L1245.5 246 1251.7 253.7C1252.5 255 1254.3 255.1 1255.5 254.2 1256.1 253.5 1256.6 252 1255.7 250.8L1246.3 238.7 1248.8 221.2 1269.9 248.9C1270.7 250.2 1272.5 250.3 1273.4 249.8 1274.3 248.7 1274.8 247.2 1273.9 246L1249.6 214.6 1251.2 203.1 1273.3 194 1282.4 201.1 1287.9 240.4C1288.1 241.7 1289.2 242.6 1290.6 242.4S1292.8 241.1 1292.6 239.8L1287.7 205.1 1301.8 216 1303.8 230.8C1303.9 232.1 1305.1 233 1306.8 233.1S1309 231.8 1308.9 230.4L1307.2 220 1317.4 227.9C1318.6 228.8 1320.2 228.2 1321.1 227.1 1322 226 1321.8 224.6 1320.6 223.7L1310.4 215.9 1320.5 214.5C1322.2 214.6 1323.1 213.5 1322.5 211.9 1322.3 210.5 1321.2 209.6 1319.8 209.8L1305 211.8 1290.9 201 1325.6 196.7C1327 196.5 1328.2 195 1328 193.7S1326.7 191.5 1325.3 191.6L1285.6 196.9 1276.5 189.9 1279.8 165.8 1290.2 161.7 1326.8 177.1C1328.3 177.5 1329.5 176.7 1330.4 175.6 1330.9 174.1 1330 172.9 1328.9 172L1296.7 158.8 1312.6 152.2 1326.7 158.2C1328.2 158.7 1329.4 157.9 1330.3 156.7 1330.5 155.7 1329.9 154 1328.5 153.5L1319.4 149.6 1331.1 144.6C1332.1 144.2 1332.6 142.7 1332.4 141.4 1331.5 140.1 1330.1 139.6 1329.1 140.1L1317.5 145.1 1321.3 135.3C1321.5 134.3 1321 132.6 1319.9 132.4 1318.8 131.6 1317.8 132 1316.9 133.2 1316.9 133.2 1316.6 133.5 1316.6 133.5L1310.6 147.7 1294.7 154.2 1307.9 122C1308.4 120.6 1308.2 119.2 1306.8 118.8 1305.4 118.3 1304.4 118.7 1303.8 119.5 1303.5 119.9 1303.5 119.9 1303.5 119.9L1288.2 157.1 1277.8 161.3 1258.4 146.4 1260.1 135.5 1291.7 110.8C1292.7 110.3 1292.8 108.6 1292.3 107.7 1291.5 106.4 1289.8 106.3 1288.5 107.1L1260.8 128.2 1263 111.2 1275.1 101.7C1276.4 100.9 1276.9 99.4 1275.7 98.5 1274.9 97.3 1273.2 97.2 1272.2 97.6L1264.1 104.2 1265.9 91.6C1265.7 90.3 1264.9 89 1263.5 88.5 1262.8 88.6 1261.8 89.1 1261.2 89.8 1260.9 90.2 1260.9 90.2 1261 90.9L1259.3 103.5 1252.7 95.4C1251.9 94.2 1250.5 94.3 1249.6 94.8 1249.3 95.2 1249.3 95.2 1249 95.6 1248.4 96.3 1248.2 97.4 1248.7 98.3L1258.1 110.4 1255.9 127.5 1234.8 99.8C1233.7 99 1232.2 98.5 1231.4 99.6 1230.7 99.7 1230.7 99.7 1230.4 100.1 1229.8 100.8 1230 102.2 1230.5 103.1L1255.2 134.8 1253.5 145.6 1231.1 155.1 1222.4 148.4 1217.2 108.7C1217 107.3 1215.5 106.1 1214.1 106.3S1211.6 108 1211.8 109.4L1216.7 144 1203 133.5 1200.6 118.4C1200.5 117 1199.3 116.1 1198 116.3 1196.6 116.5 1195.7 117.6 1195.9 119L1197.2 129.1 1187 121.2C1186.2 120.6 1184.5 120.5 1183.6 121.6 1182.7 122.8 1183 124.8 1183.8 125.4L1194 133.3 1183.9 134.6C1183.3 134.7 1182.6 134.8 1182.3 135.2 1181.7 135.9 1181.8 136.6 1181.9 137.3 1182.1 138.6 1183.2 139.5 1184.6 139.3L1199.7 137.7 1213.5 148.2 1178.8 152.4C1178.1 152.5 1177.8 152.9 1177.2 153.6 1176.9 154 1176.6 154.4 1176.7 155.1 1176.9 156.4 1178.4 157.6 1179.8 157.4L1219.2 152.6 1227.9 159.3 1224.9 183 1214.6 187.7 1177.6 172.1C1176.5 171.9 1175.2 172.1 1174.6 172.8 1174.3 173.2 1174.3 173.2 1174.7 173.5 1173.8 174.6 1174.4 176.3 1175.8 176.8L1208 190 1191.8 196.9 1177.7 190.9C1176.6 190.7 1175.6 191.2 1175.1 191.9 1175.1 191.9 1174.8 192.3 1174.8 192.3 1173.9 193.4 1174.5 195.1 1175.9 195.6L1185.6 199.4 1174 204.4C1173.3 204.5 1173 204.9 1172.7 205.2 1172.1 206 1171.9 207.1 1172.3 207.3 1172.9 209 1174.3 209.5 1175.6 209.3L1187.3 204.3 1183.4 213.4C1182.9 214.9 1183.4 216.5 1184.9 217 1185.9 217.2 1187.6 216.6 1187.8 215.6L1193.8 201.4 1209.7 194.9 1196.5 227.1C1196 228.5 1196.8 229.8 1198 230.7 1199 230.9 1200.7 230.3 1201.2 228.9ZM1246.9 196.8L1232.1 185.4 1229.8 183.7 1230.1 180.9 1232.5 162.8 1233.1 159.6 1235.7 158.6 1252.6 151.6 1255.2 150.5 1257.5 152.3 1272.3 163.7 1274.6 165.4 1274.3 168.2 1271.9 186.3 1271.6 189.1 1268.7 190.5 1251.8 197.6 1249.2 198.6 1246.9 196.8Z" fill="rgba(51, 121, 194, 0.58)"></path>
    </g>
    <defs>
        <mask id="SvgjsMask1036">
            <rect width="1440" height="560" fill="#ffffff"></rect>
        </mask>
        <filter id="SvgjsFilter1037">
            <feGaussianBlur stdDeviation="1"></feGaussianBlur>
        </filter>
    </defs>
</svg>